<?xml version="1.0" standalone="no"?>
<!DOCTYPE svg PUBLIC "-//W3C//DTD SVG 20010904//EN"
 "http://www.w3.org/TR/2001/REC-SVG-20010904/DTD/svg10.dtd">
<svg version="1.0" xmlns="http://www.w3.org/2000/svg"
 width="685.000000pt" height="401.000000pt" viewBox="0 0 685.000000 401.000000"
 preserveAspectRatio="xMidYMid meet">

<g transform="translate(0.000000,401.000000) scale(0.100000,-0.100000)"
fill="#d61519" stroke="none">
<path d="M1880 3469 c-366 -65 -675 -123 -687 -128 -12 -6 -30 -22 -40 -37
-46 -71 -218 -847 -270 -1218 -20 -146 -23 -570 -7 -1036 10 -277 13 -309 32
-353 29 -63 109 -142 178 -174 66 -30 115 -33 809 -57 242 -9 499 -18 570 -21
294 -11 736 -23 1220 -31 302 -5 647 4 755 21 14 2 54 6 90 10 283 29 657 114
950 216 283 99 698 288 719 327 18 35 13 70 -34 212 -95 292 -201 447 -357
524 -81 41 -75 39 -548 111 -344 52 -534 87 -633 116 -192 57 -705 309 -1107
544 -220 129 -349 208 -353 218 -3 7 -46 116 -96 242 -198 498 -194 489 -283
557 -54 42 -122 67 -193 72 -33 2 -277 -37 -715 -115z m918 -322 c7 -18 12
-36 12 -39 0 -6 -210 -175 -238 -191 -9 -6 -21 -2 -35 11 -48 44 -166 82 -254
82 -59 0 -149 -22 -204 -51 -23 -11 -48 -18 -57 -14 -26 10 -8 17 178 69 322
92 515 148 540 156 40 14 45 12 58 -23z m-1414 -384 c-15 -36 -43 -129 -49
-164 l-5 -37 -81 31 -81 30 7 36 c12 67 12 67 103 94 107 31 116 32 106 10z
m1721 -343 c-36 -36 -65 -70 -65 -76 0 -5 27 -36 60 -69 l60 -59 88 87 87 87
86 -50 87 -50 -62 -60 -61 -59 67 -68 68 -68 80 80 80 80 47 -25 c26 -14 73
-39 103 -57 l57 -32 -9 -68 c-7 -63 -34 -213 -43 -240 -10 -29 -533 192 -720
305 -133 81 -385 278 -385 301 0 5 25 23 57 41 71 40 221 139 228 150 3 5 39
-12 81 -38 l75 -46 -66 -66z m-1735 -142 c16 -46 44 -111 63 -144 20 -32 34
-60 33 -61 -3 -3 -366 164 -373 171 -4 4 26 176 33 188 2 4 52 -10 110 -31
l105 -38 29 -85z m1331 -124 c37 -40 215 -172 304 -227 138 -84 426 -216 629
-289 60 -21 115 -42 123 -46 22 -13 -124 -215 -295 -411 l-38 -43 -234 11
c-314 15 -757 40 -800 46 -19 2 -50 4 -68 5 -36 0 -35 -3 -160 275 -73 162
-73 145 5 196 187 121 376 305 458 445 21 35 41 64 45 64 3 0 17 -12 31 -26z
m-1400 -212 c129 -60 306 -142 394 -182 88 -40 165 -78 171 -84 14 -13 207
-446 202 -452 -3 -2 -56 1 -119 6 -63 5 -211 16 -329 25 -118 9 -233 18 -255
20 -22 2 -98 9 -170 16 -71 6 -134 15 -139 19 -18 18 -10 740 9 740 1 0 108
-49 236 -108z m2867 -1 l100 -48 -41 -42 -42 -41 68 -67 67 -68 69 69 68 68
76 -24 76 -24 -32 -36 c-18 -19 -148 -162 -291 -317 l-258 -282 -132 2 c-72 1
-152 4 -177 7 l-47 4 70 86 c193 240 276 420 309 665 7 53 14 97 16 97 1 0 47
-22 101 -49z m849 -250 c98 -16 220 -35 271 -42 51 -6 89 -15 85 -20 -13 -12
-173 -58 -259 -75 -44 -8 -167 -18 -274 -21 l-195 -6 65 72 c36 40 74 83 85
96 11 13 26 24 32 24 7 1 93 -12 190 -28z m810 -206 c39 -45 87 -132 75 -138
-4 -2 -50 -18 -102 -35 -308 -101 -760 -157 -1401 -175 l-107 -2 24 28 c13 15
56 63 95 106 l71 79 306 5 c232 4 325 9 382 22 99 21 309 92 440 149 l105 44
39 -21 c21 -12 54 -40 73 -62z m163 -330 c28 -74 30 -70 -77 -120 -510 -241
-981 -371 -1543 -426 -185 -19 -1221 -14 -1630 7 -52 2 -360 14 -685 25 -844
28 -877 31 -919 60 -66 45 -80 85 -83 249 -2 80 -1 150 1 156 3 7 27 8 77 3
41 -5 283 -24 539 -43 256 -20 494 -38 530 -41 94 -8 674 -42 955 -57 266 -14
1308 -17 1560 -5 478 22 884 84 1135 171 69 24 126 44 128 45 1 0 7 -10 12
-24z"/>
</g>
</svg>
